{"title":"Sharktopus.vs.Whalewolf.2015.HDRip.x264-MenaceIISociety","uid":12218868,"size":1033292484,"categoryP":"video","categoryS":"movies","magnet":"?xt=urn:btih:cfdf0157b5b5a50bc6542c41e08f52b739060b2f&amp;dn=Sharktopus.vs.Whalewolf.2015.HDRip.x264-MenaceIISociety&amp;tr=udp%3A%2F%2Ftracker.openbittorrent.com%3A80&amp;tr=udp%3A%2F%2Fopen.demonii.com%3A1337&amp;tr=udp%3A%2F%2Ftracker.coppersurfer.tk%3A6969&amp;tr=udp%3A%2F%2Fexodus.desync.com%3A6969","seeders":1,"leechers":2,"uploader":"xxxlavalxxx","files":4,"time":1439309587,"description":" &lt;a href=&quot;http://extraimago.com/image/qsj&quot; rel=&quot;nofollow&quot; target=&quot;_NEW&quot;&gt;http://extraimago.com/image/qsj&lt;/a&gt;\n &lt;a href=&quot;\nhttp://www.imdb.com/title/tt3292154/&quot; rel=&quot;nofollow&quot; target=&quot;_NEW&quot;&gt;\nhttp://www.imdb.com/title/tt3292154/&lt;/a&gt;\n\n\nWhen a mad scientist mixes the genes of a killer whale and a wolf, it creates the Whalewolf, and it's up to Sharktopus to stop it.\n\nDirector: Kevin O'Neill\nStars: Casper Van Dien, Catherine Oxenberg, Jennifer Wenger\nGenres: Action | Adventure | Sci-Fi | Thriller\nCountry: USA\nLanguage: English\n\n\nSharktopus.vs.Whalewolf.2015.HDRip.x264-MenaceIISociety\n &lt;a href=&quot;\nhttp://www.imdb.com/title/tt3292154/&quot; rel=&quot;nofollow&quot; target=&quot;_NEW&quot;&gt;\nhttp://www.imdb.com/title/tt3292154/&lt;/a&gt;\nSource: 720p HDTV x264-HANDJOB [THANKS]\n\nGeneral\nComplete name: Sharktopus.vs.Whalewolf.2015.HDRip.x264-MenaceIISociety.mp4\nFormat: MPEG-4\nFormat profile: Base Media\nCodec ID: isom\nFile size: 968 MiB\nDuration: 1h 23mn\nOverall bit rate mode: Variable\nOverall bit rate: 1 630 Kbps\nEncoded date: UTC 2015-08-11 13:30:58\nTagged date: UTC 2015-08-11 13:30:58\n\nVideo\nID: 1\nFormat: AVC\nFormat/Info: Advanced Video Codec\nFormat profile: &lt;a class=&quot;__cf_email__&quot; href=&quot;/cdn-cgi/l/email-protection&quot; data-cfemail=&quot;f2ba9b959ab2bec6dcc3&quot;&gt;[email&amp;#160;protected]&lt;/a&gt;&lt;script data-cfhash='f9e31' type=&quot;text/javascript&quot;&gt;\n/* &lt;![CDATA[ */!function(){try{var t=&quot;currentScript&quot;in document?document.currentScript:function(){for(var t=document.getElementsByTagName(&quot;script&quot;),e=t.length;e--;)if(t[e].getAttribute(&quot;data-cfhash&quot;))return t[e]}();if(t&amp;&amp;t.previousSibling){var e,r,n,i,c=t.previousSibling,a=c.getAttribute(&quot;data-cfemail&quot;);if(a){for(e=&quot;&quot;,r=parseInt(a.substr(0,2),16),n=2;a.length-n;n+=2)i=parseInt(a.substr(n,2),16)^r,e+=String.fromCharCode(i);e=document.createTextNode(e),c.parentNode.replaceChild(e,c)}t.parentNode.removeChild(t);}}catch(u){}}()/* ]]&gt; */&lt;/script&gt;\nFormat settings, CABAC: Yes\nFormat settings, ReFrames: 3 frames\nCodec ID: avc1\nCodec ID/Info: Advanced Video Coding\nDuration: 1h 23mn\nBit rate mode: Variable\nBit rate: 1 271 Kbps\nMaximum bit rate: 40.0 Mbps\nWidth: 720 pixels\nHeight: 400 pixels\nDisplay aspect ratio: 16:9\nFrame rate mode: Constant\nFrame rate: 29.970 fps\nColor space: YUV\nChroma subsampling: 4:2:0\nBit depth: 8 bits\nScan type: Progressive\nBits/(Pixel*Frame): 0.147\nStream size: 755 MiB (78%)\nWriting library: x264 core 148 r2579 73ae2d1\n\nAudio\nID: 2\nFormat: AAC\nFormat/Info: Advanced Audio Codec\nFormat profile: LC\nCodec ID: 40\nDuration: 1h 23mn\nBit rate mode: Variable\nBit rate: 353 Kbps\nMaximum bit rate: 388 Kbps\nChannel(s): 6 channels\nChannel positions: Front: L C R, Side: L R, LFE\nSampling rate: 48.0 KHz\nCompression mode: Lossy\nStream size: 211 MiB (22%)\nEncoded date: UTC 2015-08-11 12:46:05\nTagged date: UTC 2015-08-11 13:34:40 \n\n &lt;a href=&quot;\nhttp://extraimago.com/image/qsn&quot; rel=&quot;nofollow&quot; target=&quot;_NEW&quot;&gt;\nhttp://extraimago.com/image/qsn&lt;/a&gt; &lt;a href=&quot;\nhttp://extraimago.com/image/qss&quot; rel=&quot;nofollow&quot; target=&quot;_NEW&quot;&gt;\nhttp://extraimago.com/image/qss&lt;/a&gt; &lt;a href=&quot;\nhttp://extraimago.com/image/qs7&quot; rel=&quot;nofollow&quot; target=&quot;_NEW&quot;&gt;\nhttp://extraimago.com/image/qs7&lt;/a&gt; &lt;a href=&quot;\nhttp://extraimago.com/image/qsc&quot; rel=&quot;nofollow&quot; target=&quot;_NEW&quot;&gt;\nhttp://extraimago.com/image/qsc&lt;/a&gt; &lt;a href=&quot;\nhttp://extraimago.com/image/qs1&quot; rel=&quot;nofollow&quot; target=&quot;_NEW&quot;&gt;\nhttp://extraimago.com/image/qs1&lt;/a&gt;","torrent":{"xt":"urn:btih:cfdf0157b5b5a50bc6542c41e08f52b739060b2f","amp;dn":"Sharktopus.vs.Whalewolf.2015.HDRip.x264-MenaceIISociety","amp;tr":["udp%3A%2F%2Ftracker.openbittorrent.com%3A80","udp%3A%2F%2Fopen.demonii.com%3A1337","udp%3A%2F%2Ftracker.coppersurfer.tk%3A6969","udp%3A%2F%2Fexodus.desync.com%3A6969"],"infoHash":"cfdf0157b5b5a50bc6542c41e08f52b739060b2f","infoHashBuffer":{"type":"Buffer","data":[207,223,1,87,181,181,165,11,198,84,44,65,224,143,82,183,57,6,11,47]},"announce":[],"urlList":[]}}